<svg xmlns="http://www.w3.org/2000/svg" viewBox="0 0 512 512">
  <defs>
    <linearGradient id="background" x1="72" y1="48" x2="440" y2="464" gradientUnits="userSpaceOnUse">
      <stop stop-color="#112842"/>
      <stop offset="1" stop-color="#07111f"/>
    </linearGradient>
    <linearGradient id="arrow" x1="256" y1="104" x2="256" y2="382" gradientUnits="userSpaceOnUse">
      <stop stop-color="#63e6ff"/>
      <stop offset="0.52" stop-color="#22b8f5"/>
      <stop offset="1" stop-color="#3478f6"/>
    </linearGradient>
    <filter id="shadow" x="-30%" y="-30%" width="160%" height="170%">
      <feDropShadow dx="0" dy="18" stdDeviation="18" flood-color="#020817" flood-opacity=".55"/>
    </filter>
  </defs>
  <rect width="512" height="512" rx="112" fill="url(#background)"/>
  <path d="M96 158h82M96 222h82M96 286h82M334 158h82M334 222h82M334 286h82"
        fill="none" stroke="#2a5e83" stroke-width="24" stroke-linecap="round"/>
  <path d="M216 104c-15.5 0-28 12.5-28 28v142h-48c-24.3 0-36.7 29.2-19.8 46.7l116 120a27.5 27.5 0 0 0 39.6 0l116-120c16.9-17.5 4.5-46.7-19.8-46.7h-48V132c0-15.5-12.5-28-28-28h-80Z"
        fill="url(#arrow)" filter="url(#shadow)"/>
  <path d="M188 132c0-15.5 12.5-28 28-28h80c15.5 0 28 12.5 28 28v24H188v-24Z"
        fill="#91efff" opacity=".46"/>
</svg>
